

<svg version="1.1" id="Layer_1" xmlns="http://www.w3.org/2000/svg" xmlns:xlink="http://www.w3.org/1999/xlink" x="0px" y="0px"
	  viewBox="0 0 343.242 58.89" style="enable-background:new 0 0 343.242 58.89;"
	 xml:space="preserve">
<style type="text/css">
<![CDATA[
	.st0{fill:#BF5700;}
	.st1{fill:#333F48;}
]]>
</style>
<g>
	<path class="st1" d="M77.479,43.393l-0.78,4.32c-1.62,0.779-4.77,1.98-7.29,2.34c-5.58,0-10.799-3.779-10.799-10.77
		s4.649-10.41,11.339-11.31c3.12,0,5.88,1.409,7.169,2.34v4.05h-1.65l-0.96-2.79c-0.81-0.87-2.52-2.04-4.979-2.04
		c-4.44,0-7.47,3.15-7.47,9.029c0,4.86,2.97,9.84,8.22,9.84c1.8,0,3.12-0.99,3.93-1.68l1.62-3.33H77.479z"/>
	<path class="st1" d="M93.649,42.163c0,4.47-2.73,7.05-7.38,7.8c-3.99,0-6.69-3.09-6.69-7.17c0-4.5,2.73-7.05,7.38-7.83
		C90.949,34.963,93.649,38.083,93.649,42.163z M87.019,48.492c2.4,0,3.63-2.459,3.63-5.699c0-3.811-1.83-6.359-4.44-6.359
		c-2.43,0-3.63,2.459-3.63,5.729C82.579,45.583,84.349,48.492,87.019,48.492z"/>
	<path class="st1" d="M115.998,49.453l-2.85,0.09l-0.15-1.051l1.5-0.299v-8.58c0-1.561-0.66-2.25-1.74-2.25
		c-0.9,0-2.01,0.6-3.06,1.35l-0.9,0.631v8.85l1.35,0.299l-0.15,1.051l-2.55-0.09l-2.7,0.09l-0.15-1.051l1.35-0.299v-8.58
		c0-1.561-0.66-2.25-1.74-2.25c-0.9,0-2.01,0.6-3.06,1.35l-0.9,0.631v8.85l1.5,0.299l-0.15,1.051l-2.7-0.09l-3.45,0.09l-0.15-1.051
		l2.1-0.299v-10.95l-2.1,0.181l-0.15-1.051l3.6-0.93l1.29-0.09l0.15,2.49l4.14-2.881c2.91,0,3.99,0.87,4.32,2.94l4.23-2.94
		c3.84,0,4.47,1.44,4.47,5.25v7.98l2.25,0.299l-0.15,1.051L115.998,49.453z"/>
	<path class="st1" d="M125.658,49.332v5.76l3.15,0.301l-0.15,1.05l-4.35-0.09l-3.45,0.09l-0.15-1.05l2.1-0.301V37.213l-2.1,0.18
		l-0.15-1.02l3.6-0.93l1.29-0.09l0.15,2.49l3.84-2.881c3.87,0,6.12,2.641,6.12,6.99c0,5.1-3.06,7.41-7.53,8.01
		C127.188,49.963,126.348,49.723,125.658,49.332z M129.438,37.213c-0.81,0-1.77,0.54-2.88,1.381l-0.9,0.689v7.529
		c0.69,1.051,1.92,1.65,3.27,1.65c2.16,0,3.63-2.13,3.63-5.58C132.558,39.373,131.238,37.213,129.438,37.213z"/>
	<path class="st1" d="M150.648,45.613c0,1.289,0.149,1.77,0.36,2.25h1.5l0.119,1.049l-3.87,0.75l-0.84-2.43l-4.35,2.73
		c-3.96,0-4.62-1.41-4.62-4.891v-7.829l-2.1,0.149l-0.15-1.17l3.6-0.779l1.5-0.12v9.989c0,1.561,0.66,2.25,2.13,2.25
		c0.93,0,2.13-0.75,3.27-1.5l0.6-0.39v-8.43l-1.8,0.149l-0.15-1.17l3.3-0.779l1.5-0.12V45.613z"/>
	<path class="st1" d="M153.377,37.123v-0.51l1.051-1.05h1.949v-1.95l1.95-1.949h0.78v4.109h4.529v1.35h-4.499v8.79
		c0,0.87,0.329,1.8,1.59,1.8c0.87,0,1.529-0.301,2.369-0.721l0.511,1.021l-3.51,1.95c-3.36,0-3.811-1.2-3.811-3.9v-8.939H153.377z"
		/>
	<path class="st1" d="M166.999,41.863c0,3.42,1.829,5.85,4.979,5.85c1.2,0,2.64-0.57,3.75-1.26l0.479,1.14
		c-1.439,0.989-3.33,1.83-5.25,2.37c-3.629,0-6.899-2.58-6.899-7.29c0-4.439,2.67-6.81,6.78-7.71c3.959,0,5.31,2.49,5.31,5.641v1.26
		H166.999z M173.028,40.363c0-2.311-0.45-3.9-2.76-3.9c-1.83,0-3,1.711-3.24,4.2L173.028,40.363z"/>
	<path class="st1" d="M182.568,39.312l3.42-4.199h2.399v3h-2.22c-0.72,0.15-2.04,1.14-2.85,2.13l-0.6,0.72v7.14l3.149,0.3
		l-0.15,1.141l-4.35-0.09l-3.359,0.09l-0.15-1.051l2.1-0.299v-10.95l-2.1,0.181l-0.149-1.051l3.6-0.93l1.2-0.09L182.568,39.312z"/>
	<path class="st1" d="M200.387,46.513c0.9,1.11,2.55,1.89,4.23,1.89c2.579,0,4.079-1.619,4.079-3.81c0-2.04-1.319-3.21-3.119-3.989
		l-3.63-1.59c-2.16-0.931-3.931-2.311-3.931-4.98c0-3.27,3-5.189,7.17-6.06c1.89,0,3.99,0.63,5.49,1.739v4.051h-1.5l-0.87-2.73
		c-0.78-0.81-1.74-1.47-3.54-1.47c-2.37,0-3.779,1.29-3.779,3.3c0,1.65,1.17,2.67,2.819,3.391l3.45,1.499
		c2.37,1.021,4.439,2.521,4.409,5.58c0,2.819-1.92,5.55-7.56,6.72c-2.76,0-4.619-0.78-6.209-2.04l-0.66-4.05h2.1L200.387,46.513z"/>
	<path class="st1" d="M222.467,37.033c-0.479-0.359-0.93-0.48-1.739-0.48c-2.04,0-3.601,2.28-3.601,5.551
		c0,3.209,1.74,5.609,4.68,5.609c1.141,0,2.341-0.57,3.391-1.26l0.479,1.14c-1.38,0.989-2.91,1.739-4.89,2.37
		c-3.84,0-6.689-2.52-6.689-7.141c0-4.709,3.449-6.959,7.14-7.859c1.38,0,3.239,0.69,4.14,1.5v3h-2.22L222.467,37.033z"/>
	<path class="st1" d="M231.077,49.453l-3.449,0.09l-0.15-1.051l2.1-0.299v-10.95l-2.1,0.181l-0.149-1.051l3.6-0.93l1.5-0.12v12.87
		l2.25,0.299l-0.15,1.051L231.077,49.453z M229.577,28.813l2.16-0.149l0.84,0.149l0.15,1.681l-0.33,1.439l-2.13,0.18l-0.81-0.18
		l-0.181-1.68L229.577,28.813z"/>
	<path class="st1" d="M238.817,41.863c0,3.42,1.829,5.85,4.979,5.85c1.2,0,2.64-0.57,3.75-1.26l0.479,1.14
		c-1.439,0.989-3.33,1.83-5.25,2.37c-3.629,0-6.899-2.58-6.899-7.29c0-4.439,2.67-6.81,6.78-7.71c3.959,0,5.31,2.49,5.31,5.641v1.26
		H238.817z M244.846,40.363c0-2.311-0.45-3.9-2.76-3.9c-1.83,0-3,1.711-3.24,4.2L244.846,40.363z"/>
	<path class="st1" d="M253.276,49.453l-3.449,0.09l-0.15-1.051l2.1-0.299v-10.95l-2.1,0.181l-0.149-1.051l3.6-0.93l1.29-0.09
		l0.149,2.52l4.44-2.91c3.84,0,4.47,1.291,4.47,4.891v8.34l2.279,0.299l-0.149,1.051l-3.45-0.09l-2.88,0.09l-0.149-1.051
		l1.499-0.299v-8.58c0-1.561-0.689-2.25-1.979-2.25c-1.05,0-2.1,0.66-3.12,1.35l-0.899,0.6v8.881l1.649,0.299l-0.149,1.051
		L253.276,49.453z"/>
	<path class="st1" d="M275.236,37.033c-0.479-0.359-0.93-0.48-1.739-0.48c-2.04,0-3.601,2.28-3.601,5.551
		c0,3.209,1.74,5.609,4.68,5.609c1.141,0,2.341-0.57,3.391-1.26l0.479,1.14c-1.38,0.989-2.91,1.739-4.89,2.37
		c-3.84,0-6.689-2.52-6.689-7.141c0-4.709,3.449-6.959,7.14-7.859c1.38,0,3.239,0.69,4.14,1.5v3h-2.22L275.236,37.033z"/>
	<path class="st1" d="M283.186,41.863c0,3.42,1.829,5.85,4.979,5.85c1.2,0,2.64-0.57,3.75-1.26l0.479,1.14
		c-1.439,0.989-3.33,1.83-5.25,2.37c-3.629,0-6.899-2.58-6.899-7.29c0-4.439,2.67-6.81,6.78-7.71c3.959,0,5.31,2.49,5.31,5.641v1.26
		H283.186z M289.215,40.363c0-2.311-0.45-3.9-2.76-3.9c-1.83,0-3,1.711-3.24,4.2L289.215,40.363z"/>
	<g>
		<g>
			<polygon class="st0" points="26.602,20.793 26.648,20.793 26.648,20.777 26.602,20.777 26.602,20.793 			"/>
			<path class="st0" d="M32.051,16.251c-1.139-0.175-2.215-0.341-3.189-0.341c-0.521,0-0.978,0.051-1.386,0.149l-0.228-6.358V8.646
				c0.449-0.188,0.994-0.275,1.686-0.275c0.889,0,1.904,0.148,2.979,0.307c0.946,0.139,1.919,0.276,2.917,0.34l0.271,7.601
				C34.079,16.562,33.051,16.406,32.051,16.251L32.051,16.251z M21.2,16.251c-1.001,0.155-2.029,0.311-3.053,0.367l0.273-7.601
				c0.998-0.063,1.97-0.201,2.916-0.34c1.075-0.158,2.092-0.307,2.98-0.307c0.691,0,1.236,0.088,1.685,0.275v1.055l-0.228,6.358
				c-0.408-0.099-0.863-0.149-1.387-0.149C23.415,15.91,22.338,16.076,21.2,16.251L21.2,16.251z M37.352,11.766V10.32h-0.891V7.853
				h-0.604c-1.274,0-2.542-0.187-3.77-0.366c-1.119-0.164-2.178-0.32-3.154-0.32c-0.919,0-1.678,0.145-2.309,0.441
				c-0.631-0.297-1.391-0.441-2.309-0.441c-0.977,0-2.035,0.156-3.155,0.32c-1.227,0.18-2.495,0.366-3.771,0.366H16.79v2.468h-0.892
				v1.445h0.892v1.957h-0.881v1.445h0.881v2.68h0.602c1.363,0,2.699-0.207,3.992-0.406c1.092-0.168,2.123-0.328,3.004-0.328
				c0.711,0,1.244,0.104,1.657,0.318v0.001h1.161v-0.001c0.413-0.215,0.947-0.318,1.656-0.318c0.883,0,1.914,0.16,3.006,0.328
				c1.292,0.199,2.63,0.406,3.99,0.406h0.604v-2.68h0.881v-1.445h-0.881v-1.957H37.352L37.352,11.766z"/>
			<path class="st0" d="M21.364,9.77c-0.06,0.009-0.118,0.018-0.178,0.026c-0.566,0.083-1.142,0.167-1.723,0.233l-0.033,0.975
				c0.643-0.07,1.273-0.163,1.896-0.255c0.013-0.003,0.025-0.004,0.038-0.007V9.77L21.364,9.77z"/>
			<path class="st0" d="M22.086,9.667v0.973c1.025-0.143,1.965-0.245,2.781-0.178l0.033-0.96
				C24.032,9.437,23.079,9.532,22.086,9.667L22.086,9.667z"/>
			<path class="st0" d="M21.364,14.179c-0.06,0.009-0.118,0.018-0.178,0.026c-0.618,0.091-1.246,0.183-1.881,0.252L19.27,15.43
				c0.697-0.073,1.383-0.173,2.056-0.271c0.013-0.002,0.025-0.004,0.038-0.006V14.179L21.364,14.179z"/>
			<path class="st0" d="M22.086,14.076v0.973c0.959-0.133,1.846-0.231,2.623-0.188l0.033-0.959
				C23.917,13.858,23.019,13.949,22.086,14.076L22.086,14.076z"/>
			<path class="st0" d="M21.214,11.996v0.975c0.037-0.006,0.074-0.012,0.111-0.018c1.288-0.188,2.466-0.361,3.462-0.295l0.034-0.957
				C23.719,11.633,22.489,11.809,21.214,11.996L21.214,11.996z"/>
			<path class="st0" d="M20.492,12.1c-0.366,0.053-0.735,0.102-1.107,0.145l-0.035,0.973c0.386-0.041,0.767-0.092,1.143-0.144V12.1
				L20.492,12.1z"/>
			<path class="st0" d="M30.725,9.61c-0.834-0.103-1.637-0.164-2.376-0.108l0.034,0.96c0.697-0.057,1.486,0.01,2.342,0.119V9.61
				L30.725,9.61z"/>
			<path class="st0" d="M33.787,10.029c-0.581-0.066-1.156-0.15-1.723-0.233c-0.207-0.03-0.413-0.061-0.616-0.089v0.973
				c0.156,0.022,0.316,0.045,0.477,0.069c0.622,0.092,1.254,0.185,1.897,0.255L33.787,10.029L33.787,10.029z"/>
			<path class="st0" d="M30.526,11.791c-0.732-0.083-1.439-0.131-2.098-0.09l0.034,0.957c0.623-0.041,1.315,0.01,2.063,0.102V11.791
				L30.526,11.791z"/>
			<path class="st0" d="M33.866,12.244c-0.607-0.068-1.21-0.156-1.802-0.244c-0.274-0.039-0.546-0.079-0.815-0.117v0.973
				c0.222,0.031,0.447,0.064,0.676,0.098c0.647,0.096,1.307,0.191,1.977,0.264L33.866,12.244L33.866,12.244z"/>
			<path class="st0" d="M31.971,15.165c0.657,0.097,1.327,0.193,2.009,0.265l-0.034-0.973c-0.636-0.069-1.264-0.161-1.882-0.252
				c-0.03-0.005-0.062-0.009-0.093-0.014V15.165L31.971,15.165z"/>
			<path class="st0" d="M31.249,14.088c-0.963-0.133-1.89-0.23-2.742-0.187l0.035,0.959c0.801-0.044,1.715,0.061,2.707,0.201V14.088
				L31.249,14.088z"/>
			<path class="st0" d="M25.372,29.639l1.254-3.135l1.254,3.135l3.37,0.225l-2.595,2.162l0.828,3.272l-2.857-1.801l-2.857,1.801
				l0.83-3.272l-2.596-2.162L25.372,29.639L25.372,29.639z M17.737,28.526L17.737,28.526l5.445,3.96l-2.098,6.451
				c0.002,0.012,0.008,0.024,0.018,0.032s0.021,0.008,0.033,0.008l5.49-3.992l5.488,3.989c0.012,0.003,0.024,0,0.033-0.005
				c0.018-0.015,0.021-0.038,0.012-0.059l-2.088-6.427l5.443-3.956v-0.003c0.025-0.009,0.041-0.034,0.033-0.06
				c-0.008-0.023-0.035-0.036-0.062-0.028v-0.002h-6.73l-2.08-6.402h-0.003c0-0.027-0.021-0.05-0.046-0.05s-0.046,0.022-0.046,0.05
				h-0.003l-2.078,6.402h-6.732l-0.002,0.004c-0.025-0.009-0.053,0.004-0.061,0.028C17.696,28.491,17.709,28.518,17.737,28.526
				L17.737,28.526z"/>
			<path class="st0" d="M40.141,36.618c-0.49,0.542-1.128,0.918-1.832,1.088c0.1-0.721,0.41-1.395,0.9-1.935
				c0.495-0.545,1.133-0.923,1.834-1.09C40.944,35.401,40.633,36.076,40.141,36.618L40.141,36.618z M37.506,32.383
				c-0.094-0.729,0.033-1.459,0.359-2.107c0.482,0.543,0.791,1.215,0.887,1.943c0.097,0.725-0.03,1.455-0.357,2.103
				C37.913,33.78,37.602,33.106,37.506,32.383L37.506,32.383z M38.965,26.871c-0.137-0.723-0.054-1.459,0.232-2.125
				c0.513,0.512,0.862,1.166,1,1.887c0.141,0.719,0.059,1.455-0.23,2.123C39.454,28.242,39.104,27.589,38.965,26.871L38.965,26.871z
				 M42.444,28.479c0.051,0.726-0.115,1.448-0.484,2.081c-0.367,0.633-0.912,1.133-1.567,1.445
				c-0.051-0.727,0.114-1.449,0.482-2.082C41.246,29.289,41.792,28.791,42.444,28.479L42.444,28.479z M37.11,42.168
				c-0.592,0.43-1.287,0.664-2.017,0.688c0.246-0.688,0.688-1.281,1.282-1.709c0.594-0.432,1.291-0.666,2.02-0.686
				C38.147,41.145,37.704,41.738,37.11,42.168L37.11,42.168z M35.407,37.48c0.061-0.733,0.334-1.42,0.787-1.986
				c0.359,0.628,0.523,1.351,0.467,2.082c-0.057,0.73-0.33,1.421-0.785,1.986C35.516,38.932,35.35,38.211,35.407,37.48L35.407,37.48
				z M33.506,42.389c-0.205,0.701-0.616,1.318-1.178,1.779c-0.223-0.689-0.234-1.43-0.028-2.133c0.209-0.705,0.621-1.322,1.181-1.78
				C33.703,40.941,33.713,41.684,33.506,42.389L33.506,42.389z M34.608,45.566c-0.383,0.618-0.939,1.109-1.61,1.406
				c-0.465,0.208-0.958,0.313-1.466,0.313l0,0c-0.219,0-0.436-0.019-0.648-0.059c0.383-0.619,0.938-1.106,1.607-1.405
				S33.897,45.438,34.608,45.566L34.608,45.566z M28.319,45.852c0.352-0.648,0.881-1.168,1.523-1.5
				c0.074,0.719-0.066,1.445-0.416,2.093c-0.345,0.645-0.874,1.164-1.52,1.5C27.833,47.223,27.973,46.495,28.319,45.852
				L28.319,45.852z M20.182,46.973c-0.669-0.297-1.227-0.788-1.609-1.406c0.711-0.129,1.447-0.043,2.118,0.256
				c0.668,0.299,1.225,0.786,1.607,1.405C21.586,47.358,20.849,47.271,20.182,46.973L20.182,46.973z M19.674,42.387
				c-0.207-0.703-0.195-1.445,0.026-2.132c0.559,0.458,0.971,1.073,1.18,1.778c0.206,0.705,0.194,1.445-0.028,2.135
				C20.291,43.707,19.879,43.09,19.674,42.387L19.674,42.387z M23.338,44.352c0.643,0.332,1.172,0.852,1.521,1.496
				c0.348,0.647,0.488,1.375,0.414,2.097c-0.645-0.336-1.174-0.855-1.52-1.5C23.405,45.797,23.264,45.07,23.338,44.352
				L23.338,44.352z M16.071,42.168c-0.594-0.43-1.037-1.023-1.284-1.707c0.729,0.02,1.425,0.254,2.019,0.686
				c0.594,0.428,1.037,1.021,1.283,1.709C17.358,42.832,16.663,42.598,16.071,42.168L16.071,42.168z M16.987,35.494
				c0.453,0.566,0.727,1.253,0.787,1.985c0.057,0.731-0.109,1.452-0.469,2.083c-0.455-0.565-0.729-1.256-0.785-1.987
				C16.463,36.845,16.627,36.122,16.987,35.494L16.987,35.494z M13.04,36.618c-0.49-0.542-0.803-1.217-0.902-1.937
				c0.702,0.167,1.34,0.545,1.833,1.09c0.491,0.54,0.803,1.214,0.902,1.935C14.167,37.536,13.53,37.16,13.04,36.618L13.04,36.618z
				 M12.79,32.006c-0.654-0.312-1.201-0.812-1.568-1.445c-0.369-0.633-0.535-1.355-0.484-2.081c0.652,0.312,1.199,0.81,1.57,1.444
				C12.674,30.557,12.84,31.279,12.79,32.006L12.79,32.006z M12.982,26.631c0.139-0.721,0.489-1.373,1.001-1.885
				c0.287,0.666,0.369,1.402,0.232,2.123c-0.139,0.72-0.488,1.373-1.002,1.887C12.924,28.088,12.842,27.352,12.982,26.631
				L12.982,26.631z M14.428,32.217c0.096-0.727,0.405-1.398,0.887-1.941c0.326,0.648,0.453,1.379,0.359,2.105
				c-0.096,0.726-0.405,1.399-0.888,1.94C14.458,33.674,14.333,32.943,14.428,32.217L14.428,32.217z M40.143,33.13
				c1.123-0.338,2.064-1.077,2.65-2.085c0.586-1.006,0.768-2.191,0.51-3.335l-0.113-0.503l-0.494,0.147
				c-0.568,0.169-1.092,0.443-1.545,0.804c0.105-0.56,0.104-1.139-0.006-1.707c-0.221-1.148-0.863-2.16-1.81-2.85l-0.417-0.305
				l-0.274,0.438c-0.621,0.988-0.843,2.168-0.625,3.317c0.22,1.14,0.858,2.146,1.796,2.837c-0.174,0.393-0.292,0.805-0.35,1.227
				c-0.278-0.762-0.753-1.445-1.393-1.973l-0.398-0.33l-0.301,0.42c-0.678,0.949-0.971,2.113-0.822,3.273
				c0.152,1.155,0.732,2.206,1.637,2.953l0.021,0.015c-0.266,0.36-0.475,0.754-0.625,1.172c-0.113-0.804-0.438-1.569-0.955-2.219
				l-0.32-0.405l-0.381,0.351c-0.861,0.789-1.387,1.865-1.48,3.033c-0.092,1.161,0.262,2.306,0.99,3.224l0.019,0.023
				c-0.335,0.295-0.62,0.639-0.854,1.016c0.055-0.812-0.103-1.629-0.475-2.371l-0.231-0.461l-0.444,0.265
				c-1.006,0.595-1.743,1.54-2.075,2.661c-0.328,1.121-0.221,2.312,0.303,3.361l0.014,0.025c-0.389,0.221-0.738,0.496-1.045,0.818
				c0.221-0.783,0.234-1.615,0.023-2.416l-0.131-0.5l-0.488,0.164c-1.106,0.375-2.022,1.148-2.581,2.178
				c-0.534,0.993-0.68,2.143-0.419,3.239c-0.147,0.102-0.302,0.207-0.463,0.316c-0.16-0.109-0.315-0.215-0.463-0.316
				c0.261-1.097,0.116-2.246-0.42-3.241c-0.557-1.027-1.473-1.801-2.58-2.176l-0.488-0.164l-0.131,0.5
				c-0.211,0.801-0.197,1.633,0.023,2.416c-0.306-0.322-0.655-0.598-1.044-0.818l0.013-0.025c0.524-1.049,0.632-2.24,0.304-3.361
				c-0.333-1.121-1.07-2.066-2.076-2.661l-0.443-0.265l-0.231,0.461c-0.373,0.742-0.529,1.559-0.475,2.371
				c-0.234-0.379-0.52-0.721-0.854-1.016l0.018-0.023c0.73-0.918,1.082-2.062,0.99-3.227c-0.094-1.165-0.619-2.241-1.48-3.03
				l-0.381-0.351l-0.32,0.405c-0.518,0.649-0.841,1.415-0.955,2.219c-0.149-0.418-0.358-0.812-0.624-1.172l0.021-0.015
				c0.903-0.747,1.484-1.798,1.636-2.953c0.149-1.16-0.143-2.324-0.822-3.273l-0.301-0.42l-0.397,0.33
				c-0.641,0.527-1.115,1.211-1.393,1.975c-0.058-0.424-0.175-0.836-0.351-1.229c0.938-0.691,1.576-1.697,1.796-2.838
				c0.218-1.15-0.004-2.328-0.625-3.316l-0.274-0.438l-0.417,0.305c-0.946,0.689-1.589,1.701-1.81,2.848
				c-0.109,0.57-0.111,1.148-0.006,1.709c-0.453-0.36-0.977-0.635-1.544-0.804l-0.494-0.147L9.878,27.71
				c-0.258,1.144-0.077,2.329,0.509,3.335c0.586,1.008,1.527,1.747,2.65,2.085l0.436,0.13c0.045,0.366,0.137,0.727,0.269,1.074
				c-0.622-0.398-1.333-0.641-2.083-0.701l-0.514-0.042l-0.008,0.517c-0.016,1.172,0.406,2.292,1.188,3.155
				c0.781,0.865,1.855,1.395,3.023,1.492l0.453,0.038c0.119,0.351,0.283,0.684,0.484,0.993c-0.508-0.19-1.045-0.29-1.598-0.29
				c-0.195,0-0.392,0.013-0.585,0.035l-0.512,0.066l0.1,0.504c0.228,1.152,0.871,2.162,1.814,2.848
				c0.784,0.57,1.716,0.871,2.69,0.871c0.191,0,0.385-0.012,0.574-0.035l0.451-0.059c0.191,0.318,0.419,0.609,0.682,0.873
				c-0.731-0.109-1.482-0.045-2.189,0.201l-0.488,0.17l0.203,0.475c0.459,1.077,1.299,1.934,2.361,2.407
				c0.591,0.264,1.216,0.396,1.859,0.396c0.514,0,1.021-0.086,1.51-0.254l0.359-0.125c0.6,0.51,1.277,1.018,2.209,1.656
				c-0.426,0.279-0.895,0.586-1.42,0.922l0.905,0.562c0.512-0.33,0.965-0.627,1.378-0.902c0.413,0.275,0.866,0.572,1.378,0.902
				l0.905-0.562c-0.524-0.336-0.994-0.643-1.418-0.922c0.93-0.639,1.607-1.146,2.207-1.656l0.361,0.125
				c0.488,0.168,0.994,0.254,1.508,0.254l0,0c0.645,0,1.27-0.133,1.859-0.395c1.064-0.476,1.902-1.332,2.361-2.409l0.203-0.475
				l-0.488-0.17c-0.707-0.246-1.458-0.311-2.188-0.199c0.262-0.264,0.49-0.557,0.681-0.875l0.451,0.059
				c0.19,0.023,0.383,0.035,0.574,0.035c0.002,0,0.002,0,0.002,0c0.973,0,1.904-0.301,2.689-0.871
				c0.942-0.686,1.587-1.695,1.813-2.848l0.1-0.504l-0.512-0.066c-0.193-0.022-0.391-0.035-0.585-0.035
				c-0.552,0-1.09,0.1-1.598,0.29c0.201-0.31,0.365-0.643,0.486-0.993l0.451-0.038c1.169-0.098,2.242-0.627,3.022-1.492
				c0.782-0.863,1.204-1.983,1.188-3.155l-0.008-0.517l-0.514,0.042c-0.749,0.061-1.461,0.303-2.083,0.701
				c0.133-0.348,0.224-0.708,0.27-1.074L40.143,33.13L40.143,33.13z"/>
			<path class="st0" d="M40.267,43.311c-0.981,1.436-2.104,2.768-3.458,4.063c-4.178,3.837-8.867,5.956-10.188,6.507
				c-1.321-0.551-6.011-2.67-10.188-6.507c-1.354-1.296-2.477-2.628-3.458-4.063C8.23,36.364,7.608,28.309,7.604,22.05l0.005-0.001
				l19.017-1.057l19.013,1.056C45.633,28.308,45.011,36.364,40.267,43.311L40.267,43.311z M8.618,5.885
				c3.535-0.392,11.483-1.184,18.008-1.184c6.523,0,14.471,0.792,18.007,1.184l0.989,13.93H26.625H7.628L8.618,5.885L8.618,5.885z
				 M47.567,4.274l-0.844-0.106c-0.112-0.014-11.344-1.411-20.092-1.412c-0.002,0-0.004,0-0.006,0s-0.005,0-0.007,0
				C17.872,2.757,6.641,4.154,6.528,4.168L5.684,4.274v15.54H5.676v2.169c0,6.546,0.648,15.008,5.707,22.415
				c1.043,1.525,2.228,2.933,3.646,4.302l-0.001,0.002c0.01,0.008,0.019,0.016,0.028,0.023c2.744,2.641,6.371,5.132,11.559,8.022
				v0.008c0.002-0.004,0.003-0.004,0.005-0.004s0.003,0,0.005,0.004v-0.008c5.188-2.891,8.814-5.382,11.559-8.022
				c0.01-0.008,0.019-0.016,0.027-0.023V48.7c1.419-1.369,2.604-2.776,3.646-4.302c5.059-7.407,5.707-15.869,5.707-22.415v-0.309
				l0.002-0.001V4.274L47.567,4.274z"/>
		</g>
		<g>
			<path class="st0" d="M77.617,19.83l-1.88,0.061l-0.1-0.701l0.98-0.199v-5.722c0-1.04-0.48-1.5-1.28-1.5
				c-0.6,0-1.38,0.44-2.12,0.899l-0.601,0.381v5.941l1.101,0.199l-0.1,0.701l-1.9-0.061l-2.101,0.061l-0.1-0.701l1.2-0.199V6.747
				l-0.72,0.12l-4.061-0.061V18.93l2.3,0.26l-0.1,0.701l-3.24-0.061l-3.361,0.061l-0.1-0.701l2.4-0.26V6.807l-3,0.061l-0.92,2.5
				h-0.78v-3.54l5.741,0.04l4.921-0.04l2.141-0.24h0.68v6.481l2.921-1.9c2.561,0,2.98,0.961,2.98,3.501v5.321l1.5,0.199l-0.1,0.701
				L77.617,19.83z"/>
			<path class="st0" d="M82.812,14.77c0,2.279,1.22,3.9,3.321,3.9c0.8,0,1.76-0.381,2.5-0.84l0.32,0.76
				c-0.96,0.66-2.22,1.221-3.5,1.58c-2.42,0-4.601-1.721-4.601-4.861c0-2.96,1.78-4.541,4.521-5.141c2.641,0,3.541,1.66,3.541,3.761
				v0.841H82.812z M86.833,13.77c0-1.541-0.3-2.602-1.841-2.602c-1.22,0-2,1.141-2.16,2.801L86.833,13.77z"/>
			<path class="st0" d="M102.734,6.547l0.1-0.699l2.561,0.06l2.34-0.06l0.1,0.699l-1.701,0.26v8.162c0,2.602-1.06,4.342-5.041,5.262
				c-3.94,0-5.341-2.121-5.341-5.301V6.807l-1.8-0.26l0.1-0.699l2.761,0.06l2.741-0.06l0.1,0.699l-1.701,0.26v8.422
				c0,2.48,1.061,3.901,3.341,3.901c2.081,0,3.241-1.4,3.241-3.961V6.807L102.734,6.547z"/>
			<path class="st0" d="M110.533,19.83l-2.3,0.061l-0.1-0.701l1.4-0.199v-7.302l-1.4,0.12l-0.1-0.7l2.4-0.62l0.86-0.061l0.1,1.681
				l2.96-1.94c2.561,0,2.981,0.86,2.981,3.261v5.562l1.52,0.199l-0.1,0.701l-2.3-0.061l-1.92,0.061l-0.1-0.701l1-0.199v-5.722
				c0-1.04-0.46-1.5-1.32-1.5c-0.7,0-1.4,0.44-2.081,0.899l-0.6,0.4v5.922l1.1,0.199l-0.1,0.701L110.533,19.83z"/>
			<path class="st0" d="M121.993,19.83l-2.3,0.061l-0.1-0.701l1.4-0.199v-7.302l-1.4,0.12l-0.1-0.7l2.4-0.62l1-0.08v8.582l1.5,0.199
				l-0.1,0.701L121.993,19.83z M120.993,6.067l1.44-0.101l0.561,0.101l0.1,1.12l-0.22,0.96l-1.42,0.12l-0.54-0.12l-0.12-1.12
				L120.993,6.067z"/>
			<path class="st0" d="M130.013,18.59l2.42-7.242l-0.92-0.199l0.1-0.7l1.76,0.06l1.66-0.06l0.1,0.7l-1.28,0.199l-3.281,8.223
				l-1.46,0.6l-3.48-8.822l-1.24-0.199l0.1-0.7l2.3,0.06l2.101-0.06l0.1,0.7l-1.32,0.199l2.18,5.861L130.013,18.59z"/>
			<path class="st0" d="M137.093,14.77c0,2.279,1.22,3.9,3.321,3.9c0.8,0,1.76-0.381,2.5-0.84l0.32,0.76
				c-0.96,0.66-2.22,1.221-3.5,1.58c-2.42,0-4.601-1.721-4.601-4.861c0-2.96,1.78-4.541,4.521-5.141c2.641,0,3.541,1.66,3.541,3.761
				v0.841H137.093z M141.114,13.77c0-1.541-0.3-2.602-1.841-2.602c-1.22,0-2,1.141-2.16,2.801L141.114,13.77z"/>
			<path class="st0" d="M147.673,13.068l2.28-2.801h1.601v2.001h-1.48c-0.48,0.101-1.36,0.761-1.9,1.421l-0.4,0.479v4.761l2.101,0.2
				l-0.1,0.761l-2.901-0.061l-2.24,0.061l-0.1-0.701l1.4-0.199v-7.302l-1.4,0.12l-0.1-0.7l2.4-0.62l0.8-0.061L147.673,13.068z"/>
			<path class="st0" d="M157.853,11.588c-0.2-0.119-0.8-0.439-1.521-0.439c-0.78,0-1.521,0.42-1.521,1.18c0,0.641,0.5,1.041,1.4,1.5
				l1.541,0.781c1.34,0.68,1.88,1.439,1.88,2.58c0,1.801-1.46,2.48-3.761,2.98c-1.22,0-2.521-0.6-3.041-0.9l-0.38-2.26h1.28
				l0.68,1.66c0.42,0.279,1,0.5,1.64,0.5c1.061,0,1.601-0.68,1.601-1.521c0-0.78-0.42-1.12-1.46-1.66l-1.58-0.82
				c-0.86-0.44-1.681-1.2-1.681-2.32c0-1.4,1.3-2.181,3.621-2.681c1.08,0,2.24,0.48,2.82,0.9v2h-1.06L157.853,11.588z"/>
			<path class="st0" d="M163.373,19.83l-2.3,0.061l-0.1-0.701l1.4-0.199v-7.302l-1.4,0.12l-0.1-0.7l2.4-0.62l1-0.08v8.582l1.5,0.199
				l-0.1,0.701L163.373,19.83z M162.373,6.067l1.44-0.101l0.561,0.101l0.1,1.12l-0.22,0.96l-1.42,0.12l-0.54-0.12l-0.12-1.12
				L162.373,6.067z"/>
			<path class="st0" d="M173.293,24.571V22.57h1.721l1.98-3.021l-0.8,0.24l-3.361-8.422h-3.021v6.102c0,0.58,0.22,1.2,1.06,1.2
				c0.58,0,1.2-0.28,1.76-0.561l0.34,0.681l-2.521,1.38c-2.241,0-2.541-0.8-2.541-2.6v-5.962h-1.94v-0.341l0.7-0.699h1.3V9.268
				l1.3-1.3h0.52v2.501h6.301l0.1,0.68l-1.32,0.199l2.22,5.861l0.16,1.381l2.48-7.242l-0.92-0.199l0.1-0.7l1.76,0.06l1.66-0.06
				l0.1,0.7l-1.28,0.199l-3.241,8.183l-2.24,5.041H173.293z"/>
			<path class="st0" d="M195.613,14.969c0,2.98-1.82,4.701-4.921,5.201c-2.661,0-4.461-2.061-4.461-4.781
				c0-3,1.82-4.701,4.921-5.221C193.813,10.168,195.613,12.248,195.613,14.969z M191.192,19.189c1.601,0,2.42-1.64,2.42-3.801
				c0-2.54-1.22-4.24-2.96-4.24c-1.62,0-2.42,1.641-2.42,3.82C188.232,17.25,189.412,19.189,191.192,19.189z"/>
			<path class="st0" d="M200.112,10.668h2.501v0.94h-2.501v7.382l2.301,0.14l-0.1,0.761l-3.101-0.061l-2.3,0.061l-0.1-0.701
				l1.4-0.199v-7.382h-1.76v-0.341l0.6-0.699h1.16v-0.2c0-1.2,0.38-1.98,1.101-2.801l1.68-1.9h2.521v1.601h-2.601l-0.38,0.54
				c-0.28,0.38-0.42,0.96-0.42,2.261V10.668z"/>
			<path class="st0" d="M217.913,19.891l-3.24-0.061l-3.361,0.061l-0.1-0.701l2.4-0.26V6.807l-3,0.041l-0.92,2.54h-0.78v-3.54
				l5.741,0.06l5.761-0.06v3.54h-0.78l-0.92-2.54l-3-0.041V18.93l2.3,0.26L217.913,19.891z"/>
			<path class="st0" d="M221.472,14.77c0,2.279,1.22,3.9,3.321,3.9c0.8,0,1.76-0.381,2.5-0.84l0.32,0.76
				c-0.96,0.66-2.22,1.221-3.5,1.58c-2.42,0-4.601-1.721-4.601-4.861c0-2.96,1.78-4.541,4.521-5.141c2.641,0,3.541,1.66,3.541,3.761
				v0.841H221.472z M225.493,13.77c0-1.541-0.3-2.602-1.841-2.602c-1.22,0-2,1.141-2.16,2.801L225.493,13.77z"/>
			<path class="st0" d="M232.132,19.189l-0.1,0.701l-1.561-0.061l-2.06,0.061l-0.1-0.701l1.4-0.199l2.96-3.641l-2.901-3.981
				l-1.24-0.2l0.1-0.72l2.301,0.06l1.9-0.06l0.1,0.72l-0.78,0.2l1.48,2.221l0.16,0.521l1.9-2.741l-0.98-0.2l0.1-0.72l1.56,0.06
				l2.061-0.06l0.1,0.72l-1.44,0.2l-2.641,3.2l3.141,4.422l1.24,0.199l-0.1,0.701l-2.3-0.061l-1.9,0.061l-0.1-0.701l0.82-0.199
				l-1.78-2.581l-0.16-0.46l-2.121,3.041L232.132,19.189z"/>
			<path class="st0" d="M243.472,10.168c2.521,0,3.161,0.641,3.161,3.181v3.921c0,0.86,0.14,1.18,0.34,1.5h1l0.08,0.701l-2.581,0.5
				l-0.62-1.541l-2.381,1.74c-1.72,0-2.94-0.96-2.94-2.561c0-0.72,0.26-1.24,0.7-1.84l4.501-1.5v-1.001c0-1.2-0.1-1.921-1.18-1.921
				c-0.54,0-1.2,0.181-1.641,0.361l-0.34,1.58h-1.72v-1.521L243.472,10.168z M244.732,15.069l-2.901,1.2c-0.3,0.3-0.4,0.7-0.4,1.12
				c0,1.021,0.58,1.38,1.16,1.38c0.56,0,1.041-0.34,1.3-0.52l0.84-0.58V15.069z"/>
			<path class="st0" d="M254.252,11.588c-0.2-0.119-0.8-0.439-1.521-0.439c-0.78,0-1.521,0.42-1.521,1.18c0,0.641,0.5,1.041,1.4,1.5
				l1.541,0.781c1.34,0.68,1.88,1.439,1.88,2.58c0,1.801-1.46,2.48-3.761,2.98c-1.22,0-2.521-0.6-3.041-0.9l-0.38-2.26h1.28
				l0.68,1.66c0.42,0.279,1,0.5,1.64,0.5c1.061,0,1.601-0.68,1.601-1.521c0-0.78-0.42-1.12-1.46-1.66l-1.58-0.82
				c-0.86-0.44-1.681-1.2-1.681-2.32c0-1.4,1.3-2.181,3.621-2.681c1.08,0,2.24,0.48,2.82,0.9v2h-1.06L254.252,11.588z"/>
			<path class="st0" d="M266.111,10.168c2.521,0,3.161,0.641,3.161,3.181v3.921c0,0.86,0.14,1.18,0.34,1.5h1l0.08,0.701l-2.581,0.5
				l-0.62-1.541l-2.381,1.74c-1.72,0-2.94-0.96-2.94-2.561c0-0.72,0.26-1.24,0.7-1.84l4.501-1.5v-1.001c0-1.2-0.1-1.921-1.18-1.921
				c-0.54,0-1.2,0.181-1.641,0.361l-0.34,1.58h-1.72v-1.521L266.111,10.168z M267.372,15.069l-2.901,1.2c-0.3,0.3-0.4,0.7-0.4,1.12
				c0,1.021,0.58,1.38,1.16,1.38c0.56,0,1.041-0.34,1.3-0.52l0.84-0.58V15.069z"/>
			<path class="st0" d="M270.591,11.608v-0.341l0.7-0.699h1.3V9.268l1.3-1.3h0.52v2.74h3.021v0.9h-3v5.861c0,0.58,0.22,1.2,1.06,1.2
				c0.58,0,1.021-0.2,1.581-0.48l0.34,0.681l-2.34,1.3c-2.241,0-2.541-0.8-2.541-2.6v-5.962H270.591z"/>
			<path class="st0" d="M285.871,15.189l-1.3,3.74l1.74,0.26l-0.1,0.701l-2.4-0.061l-2.14,0.061l-0.1-0.701l1.56-0.22l4.961-12.962
				l1.201-0.341l5.221,13.303l1.561,0.22l-0.1,0.701l-2.761-0.061l-2.64,0.061l-0.1-0.701l1.7-0.26l-1.36-3.74H285.871z
				 M288.532,8.968l-0.14-1.08l-2.201,6.361h4.261L288.532,8.968z"/>
			<path class="st0" d="M304.572,17.27c0,0.86,0.1,1.18,0.24,1.5h1l0.08,0.701l-2.581,0.5l-0.56-1.621l-2.9,1.82
				c-2.641,0-3.081-0.939-3.081-3.26v-5.222l-1.4,0.101l-0.1-0.781l2.4-0.52l1-0.08v6.661c0,1.04,0.44,1.501,1.42,1.501
				c0.62,0,1.42-0.5,2.181-1l0.4-0.261v-5.621l-1.2,0.101l-0.1-0.781l2.201-0.52l1-0.08V17.27z"/>
			<path class="st0" d="M312.191,11.588c-0.2-0.119-0.8-0.439-1.521-0.439c-0.78,0-1.521,0.42-1.521,1.18c0,0.641,0.5,1.041,1.4,1.5
				l1.541,0.781c1.34,0.68,1.88,1.439,1.88,2.58c0,1.801-1.46,2.48-3.761,2.98c-1.22,0-2.521-0.6-3.041-0.9l-0.38-2.26h1.28
				l0.68,1.66c0.42,0.279,1,0.5,1.64,0.5c1.061,0,1.601-0.68,1.601-1.521c0-0.78-0.42-1.12-1.46-1.66l-1.58-0.82
				c-0.86-0.44-1.681-1.2-1.681-2.32c0-1.4,1.3-2.181,3.621-2.681c1.08,0,2.24,0.48,2.82,0.9v2h-1.06L312.191,11.588z"/>
			<path class="st0" d="M314.61,11.608v-0.341l0.7-0.699h1.3V9.268l1.3-1.3h0.52v2.74h3.021v0.9h-3v5.861c0,0.58,0.22,1.2,1.06,1.2
				c0.58,0,1.021-0.2,1.581-0.48l0.34,0.681l-2.34,1.3c-2.241,0-2.541-0.8-2.541-2.6v-5.962H314.61z"/>
			<path class="st0" d="M324.99,19.83l-2.3,0.061l-0.1-0.701l1.4-0.199v-7.302l-1.4,0.12l-0.1-0.7l2.4-0.62l1-0.08v8.582l1.5,0.199
				l-0.1,0.701L324.99,19.83z M323.99,6.067l1.44-0.101l0.561,0.101l0.1,1.12l-0.22,0.96l-1.42,0.12l-0.54-0.12l-0.12-1.12
				L323.99,6.067z"/>
			<path class="st0" d="M330.69,19.83l-2.3,0.061l-0.1-0.701l1.4-0.199v-7.302l-1.4,0.12l-0.1-0.7l2.4-0.62l0.86-0.061l0.1,1.681
				l2.96-1.94c2.561,0,2.981,0.86,2.981,3.261v5.562l1.52,0.199l-0.1,0.701l-2.3-0.061l-1.92,0.061l-0.1-0.701l1-0.199v-5.722
				c0-1.04-0.46-1.5-1.32-1.5c-0.7,0-1.4,0.44-2.081,0.899l-0.6,0.4v5.922l1.1,0.199l-0.1,0.701L330.69,19.83z"/>
		</g>
	</g>
</g>
</svg>
